<svg xmlns="http://www.w3.org/2000/svg" viewBox="0 0 25.39 28.71"><g id="Capa_2" data-name="Capa 2"><g id="Capa_1-2" data-name="Capa 1"><polygon points="2.96 18.94 9.84 25.27 7.36 28.36 0.81 21.18 2.96 18.94" fill="#afbccb"/><path d="M7.47,28.64a.54.54,0,0,1-.35-.14l-7-7a.5.5,0,0,1,0-.71l2.62-2.62a.5.5,0,0,1,.7,0l.72.72L5.1,18a5.1,5.1,0,0,1,4-2h7.74a2.2,2.2,0,0,1,2,1.25l3-3a2.09,2.09,0,0,1,1.49-.61h0a2.09,2.09,0,0,1,1.49.61,1.89,1.89,0,0,1,.57,1.46,2.83,2.83,0,0,1-.54,1.48c-.46.66-1,1.48-1.49,2.35s-1.09,1.79-1.64,2.59a4.55,4.55,0,0,1-3.88,2.17H11.06A1.87,1.87,0,0,0,10,24.7l.47.47a.51.51,0,0,1,.15.35.53.53,0,0,1-.15.36L7.83,28.5A.54.54,0,0,1,7.47,28.64ZM1.21,21.17l6.26,6.27,1.92-1.92L8.88,25a.5.5,0,0,1-.14-.37.48.48,0,0,1,.16-.35,3,3,0,0,1,2.16-.92h6.78a3.52,3.52,0,0,0,3.06-1.74c.53-.77,1.08-1.67,1.6-2.53s1.05-1.73,1.54-2.42a1.85,1.85,0,0,0,.35-.94.86.86,0,0,0-.28-.71,1.06,1.06,0,0,0-.78-.32h0a1.1,1.1,0,0,0-.78.31l-3.05,3v.19a2.64,2.64,0,0,1-2.63,2.64H12.51a.7.7,0,0,1,0-1.4h4.36a1.24,1.24,0,0,0,0-2.47H9.13a4.17,4.17,0,0,0-3.32,1.67L4.55,20a.5.5,0,0,1-.71,0l-.72-.72Z" fill="#afbccb"/><rect x="3.79" y="20.11" width="1" height="9.66" transform="translate(-16.38 10.34) rotate(-45)" fill="#afbccb"/><path d="M9.45,4.18H19.63a0,0,0,0,1,0,0V14.36a0,0,0,0,1,0,0H8.32a0,0,0,0,1,0,0v-9A1.13,1.13,0,0,1,9.45,4.18Z" fill="#e0e8f2"/><path d="M18.59,15H7.5a2,2,0,0,1-1.95-2V2a2,2,0,0,1,2-2H18.59a2,2,0,0,1,2,2V13A2,2,0,0,1,18.59,15ZM7.5,1a1,1,0,0,0-1,1V13a1,1,0,0,0,1,1H18.59a1,1,0,0,0,1-1V2a1,1,0,0,0-1-1Z" fill="#afbccb"/><path d="M12.55,7.5a.5.5,0,0,1-.5-.5V1a.5.5,0,0,1,.5-.5.5.5,0,0,1,.5.5V7A.5.5,0,0,1,12.55,7.5Z" fill="#afbccb"/></g></g></svg>