<svg xmlns="http://www.w3.org/2000/svg" viewBox="0 0 29.5 25.58"><g id="Capa_2" data-name="Capa 2"><g id="Capa_1-2" data-name="Capa 1"><circle cx="13" cy="13" r="5.5" fill="#e0e8f2"/><path d="M12.75,25.5A12.75,12.75,0,1,1,25.5,12.75,12.76,12.76,0,0,1,12.75,25.5Zm0-24.5A11.75,11.75,0,1,0,24.5,12.75,11.76,11.76,0,0,0,12.75,1Z" fill="#afbccb"/><path d="M13.07,13.47a.37.37,0,0,1-.37-.37V5.66a.38.38,0,0,1,.75,0V13.1A.37.37,0,0,1,13.07,13.47Z" fill="#afbccb"/><path d="M13.07,13.59a.49.49,0,0,1-.48-.49V5.66a.49.49,0,1,1,1,0V13.1A.49.49,0,0,1,13.07,13.59Zm0-8.19a.26.26,0,0,0-.25.26V13.1a.26.26,0,1,0,.51,0V5.66A.26.26,0,0,0,13.07,5.4Z" fill="#afbccb"/><path d="M6.87,19.68a.38.38,0,0,1-.26-.11.37.37,0,0,1,0-.53l6.2-6.2a.37.37,0,0,1,.53,0,.39.39,0,0,1,0,.53l-6.2,6.2A.4.4,0,0,1,6.87,19.68Z" fill="#afbccb"/><path d="M6.87,19.79a.48.48,0,0,1-.34-.14.49.49,0,0,1,0-.69l6.2-6.2a.49.49,0,0,1,.69.69l-6.2,6.2A.52.52,0,0,1,6.87,19.79Zm6.2-6.95a.27.27,0,0,0-.18.08l-6.2,6.2a.26.26,0,0,0,.37.37l6.2-6.2a.27.27,0,0,0,0-.37A.27.27,0,0,0,13.07,12.84Z" fill="#afbccb"/><path id="Fill-6" d="M29.5,18.08a7.5,7.5,0,1,1-7.5-7.5,7.5,7.5,0,0,1,7.5,7.5" fill="#afbccb" fill-rule="evenodd"/><path id="Path" d="M22,20.69a.73.73,0,0,0,.68-.76V13.26a.69.69,0,1,0-1.37,0v6.67a.73.73,0,0,0,.69.76Z" fill="#fff"/><path id="Path-2" data-name="Path" d="M22,22.06a.68.68,0,1,0,.68.68.66.66,0,0,0-.2-.48A.67.67,0,0,0,22,22.06Z" fill="#fff"/></g></g></svg>