<svg xmlns="http://www.w3.org/2000/svg" viewBox="0 0 26.67 24.17"><g id="Capa_2" data-name="Capa 2"><g id="Capa_1-2" data-name="Capa 1"><path d="M5.89,4.69H23.44s-2.24,12.56-3,13.1-12.25,0-12.25,0Z" fill="#e0e8f2" fill-rule="evenodd"/><path d="M19.25,18.91l-.29,0H6.36a.49.49,0,0,1-.49-.41L3.32,3.94.51,4A.51.51,0,0,1,0,3.53.5.5,0,0,1,.49,3l3.23-.09a.51.51,0,0,1,.51.42L6.78,17.89H19.05c.21,0,1.29.14,1.86-1.55L23.33,5.16H6.1a.5.5,0,0,1-.5-.5.5.5,0,0,1,.5-.5H24a.49.49,0,0,1,.49.6L21.87,16.6A2.88,2.88,0,0,1,19.25,18.91Z" fill="#afbccb"/><path d="M10.31,24.17a2.87,2.87,0,1,1,2.87-2.87A2.87,2.87,0,0,1,10.31,24.17Zm0-4.73a1.87,1.87,0,1,0,1.87,1.86A1.87,1.87,0,0,0,10.31,19.44Z" fill="#afbccb"/><path d="M17.14,24.17A2.87,2.87,0,1,1,20,21.3,2.87,2.87,0,0,1,17.14,24.17Zm0-4.73A1.87,1.87,0,1,0,19,21.3,1.86,1.86,0,0,0,17.14,19.44Z" fill="#afbccb"/><path id="Fill-6" d="M26.67,6.5A6.5,6.5,0,1,1,20.17,0a6.5,6.5,0,0,1,6.5,6.5" fill="#afbccb" fill-rule="evenodd"/><path d="M19.25,9.49h-.1a.59.59,0,0,1-.41-.29l-1.4-2.56a.58.58,0,0,1,1-.55l1,1.9,4.1-3.76a.56.56,0,0,1,.81,0,.57.57,0,0,1,0,.82L19.64,9.34A.58.58,0,0,1,19.25,9.49Z" fill="#fff"/></g></g></svg>