<svg xmlns="http://www.w3.org/2000/svg" viewBox="0 0 30 23.57"><g id="Capa_2" data-name="Capa 2"><g id="Capa_1-2" data-name="Capa 1"><path d="M11.48,12.75H21.65a0,0,0,0,1,0,0V22.92a0,0,0,0,1,0,0H10.35a0,0,0,0,1,0,0v-9A1.13,1.13,0,0,1,11.48,12.75Z" fill="#ffb92b"/><path d="M26.15,23.15a.5.5,0,0,1-.5-.5V6.41a.5.5,0,0,1,1,0V22.65A.5.5,0,0,1,26.15,23.15Z" fill="#025a7a"/><path d="M4.15,23.15a.5.5,0,0,1-.5-.5V6.41a.5.5,0,0,1,1,0V22.65A.5.5,0,0,1,4.15,23.15Z" fill="#025a7a"/><path d="M.5,8.41a.5.5,0,0,1-.22-1L15.5.05a.48.48,0,0,1,.45,0L29.74,7.47a.5.5,0,1,1-.48.88L15.7,1.06l-15,7.3A.44.44,0,0,1,.5,8.41Z" fill="#025a7a"/><path d="M20.61,23.57H9.52a2,2,0,0,1-1.95-2V10.52A2,2,0,0,1,9.52,8.57H20.61a2,2,0,0,1,2,1.95V21.61A2,2,0,0,1,20.61,23.57ZM9.52,9.57a1,1,0,0,0-.95.95V21.61a1,1,0,0,0,.95,1H20.61a1,1,0,0,0,1-1V10.52a1,1,0,0,0-1-.95Z" fill="#025a7a"/><path d="M14.57,16.07a.5.5,0,0,1-.5-.5v-6a.5.5,0,0,1,.5-.5.5.5,0,0,1,.5.5v6A.51.51,0,0,1,14.57,16.07Z" fill="#025a7a"/></g></g></svg>