<svg xmlns="http://www.w3.org/2000/svg" viewBox="0 0 46.6 26.45"><g id="Capa_2" data-name="Capa 2"><g id="Capa_1-2" data-name="Capa 1"><path d="M32.91,21.86H13.09a2.42,2.42,0,0,1-2.42-2.41v-17A2.42,2.42,0,0,1,13.09,0H32.91a2.42,2.42,0,0,1,2.42,2.42v17A2.42,2.42,0,0,1,32.91,21.86ZM13.09,1.2a1.22,1.22,0,0,0-1.22,1.22v17a1.22,1.22,0,0,0,1.22,1.21H32.91a1.22,1.22,0,0,0,1.22-1.21v-17A1.22,1.22,0,0,0,32.91,1.2Z" fill="#025a7a"/><rect x="14.43" y="3.76" width="19.84" height="17.14" rx="1.14" fill="#ffb92b"/><path d="M45.27,21H35.46a1.33,1.33,0,0,1-1.33-1.32V11.25a1.34,1.34,0,0,1,1.33-1.33h9.81a1.34,1.34,0,0,1,1.33,1.33v8.47A1.33,1.33,0,0,1,45.27,21Zm-9.81-9.92a.13.13,0,0,0-.13.13v8.47a.12.12,0,0,0,.13.12h9.81a.12.12,0,0,0,.13-.12V11.25a.13.13,0,0,0-.13-.13Z" fill="#025a7a"/><circle cx="20.75" cy="21.8" r="4.06" fill="#fff"/><path d="M20.75,26.45A4.66,4.66,0,1,1,25.4,21.8,4.66,4.66,0,0,1,20.75,26.45Zm0-8.11A3.46,3.46,0,1,0,24.2,21.8,3.46,3.46,0,0,0,20.75,18.34Z" fill="#025a7a"/><circle cx="36.08" cy="20.89" r="4.06" fill="#fff"/><path d="M36.08,25.55a4.66,4.66,0,1,1,4.66-4.66A4.66,4.66,0,0,1,36.08,25.55Zm0-8.12a3.46,3.46,0,1,0,3.46,3.46A3.47,3.47,0,0,0,36.08,17.43Z" fill="#025a7a"/><path d="M46,11.12H34.73l-.6-.59-.05-7,.6-.61h5.69l.46.22,5.64,7ZM35.33,9.92h9.41L40.08,4.15h-4.8Z" fill="#025a7a"/><line id="Stroke-4" x1="0.27" y1="10.15" x2="8.08" y2="10.15" fill="#025a7a"/><path d="M8.08,10.6H.27c-.15,0-.27-.2-.27-.45S.12,9.7.27,9.7H8.08c.15,0,.27.2.27.45S8.23,10.6,8.08,10.6Z" fill="#025a7a"/><line id="Stroke-4-2" data-name="Stroke-4" x1="4.63" y1="6.54" x2="8.08" y2="6.54" fill="#025a7a"/><path d="M8.08,7H4.63c-.15,0-.27-.2-.27-.45s.12-.45.27-.45H8.08c.15,0,.27.2.27.45S8.23,7,8.08,7Z" fill="#025a7a"/><line id="Stroke-4-3" data-name="Stroke-4" x1="1.89" y1="13.76" x2="8.08" y2="13.76" fill="#025a7a"/><path d="M8.08,14.21H1.89c-.15,0-.27-.2-.27-.45s.12-.45.27-.45H8.08c.15,0,.27.2.27.45S8.23,14.21,8.08,14.21Z" fill="#025a7a"/></g></g></svg>