<svg xmlns="http://www.w3.org/2000/svg" viewBox="0 0 32.33 26.2"><g id="Capa_2" data-name="Capa 2"><g id="Capa_1-2" data-name="Capa 1"><path d="M19.68,12.68a.5.5,0,0,1-.5-.49L19.1,8.68l-11.45-5a.5.5,0,0,1,.4-.92L20.09,8l.09,4.15a.49.49,0,0,1-.49.51Z" fill="#025a7a"/><polygon points="0.54 5.94 0.44 19.62 12.35 24.69 13.26 11.51 0.54 5.94" fill="#ffb92b"/><path d="M13,25.07a.63.63,0,0,1-.19,0L.32,20A.49.49,0,0,1,0,19.56V5.88a.51.51,0,0,1,.22-.42.51.51,0,0,1,.48,0l12.54,5.34a.51.51,0,0,1,.31.47l-.1,13.35a.52.52,0,0,1-.22.41A.48.48,0,0,1,13,25.07ZM1,19.22l11.44,4.62.09-12.29L1,6.64Z" fill="#025a7a"/><path d="M13.05,11.72a.45.45,0,0,1-.2,0L.3,6.34A.51.51,0,0,1,0,5.88a.5.5,0,0,1,.31-.46L13.15,0a.5.5,0,0,1,.38,0l12.66,5a.51.51,0,0,1,.31.46.5.5,0,0,1-.3.47l-12.95,5.7A.48.48,0,0,1,13.05,11.72ZM1.79,5.88,13,10.68,24.71,5.54,13.35,1Z" fill="#025a7a"/><path d="M13,25.07a.43.43,0,0,1-.27-.08.48.48,0,0,1-.23-.42l.1-13.35a.48.48,0,0,1,.3-.45L26,5.06a.51.51,0,0,1,.48,0,.52.52,0,0,1,.22.42l-.09,13.14a.52.52,0,0,1-.3.45L13.15,25A.45.45,0,0,1,13,25.07Zm.59-13.52L13.46,23.8l12.17-5.47.09-12Z" fill="#025a7a"/><path id="Fill-6" d="M32.33,20.1a6.1,6.1,0,1,1-6.1-6.1,6.1,6.1,0,0,1,6.1,6.1" fill="#fff" fill-rule="evenodd"/><path id="Stroke-8" d="M32.28,19.35a6.1,6.1,0,1,1-6.1-6.1A6.1,6.1,0,0,1,32.28,19.35Z" fill="#0d4d64"/><path d="M25.27,22a.37.37,0,0,1-.28-.13l-1.53-1.68a.38.38,0,1,1,.56-.52L25.25,21l3.27-4.23a.38.38,0,0,1,.54-.07.37.37,0,0,1,.07.53l-3.56,4.6a.39.39,0,0,1-.28.15Z" fill="#fff"/></g></g></svg>